<?xml version="1.0" standalone="no"?>
<!DOCTYPE svg PUBLIC "-//W3C//DTD SVG 20010904//EN"
 "http://www.w3.org/TR/2001/REC-SVG-20010904/DTD/svg10.dtd">
<svg version="1.0" xmlns="http://www.w3.org/2000/svg"
 width="629.000000pt" height="629.000000pt" viewBox="0 0 629.000000 629.000000"
 preserveAspectRatio="xMidYMid meet">
<metadata>
Created by potrace 1.11, written by Peter Selinger 2001-2013
</metadata>
<g transform="translate(0.000000,629.000000) scale(0.100000,-0.100000)"
fill="#000000" stroke="none">
<path d="M3620 5857 c-3 -3 -30 -7 -60 -11 -108 -11 -252 -57 -384 -123 -246
-123 -478 -325 -688 -598 -247 -323 -467 -799 -553 -1198 -55 -253 -67 -548
-31 -747 93 -508 434 -948 923 -1189 143 -71 307 -130 427 -156 11 -2 30 -6
41 -8 72 -15 212 -36 248 -37 16 0 17 -22 17 -314 l0 -314 -82 4 c-46 3 -119
6 -163 8 l-80 3 -3 91 -3 92 -89 0 -90 0 0 -90 0 -90 -90 0 -90 0 0 90 0 90
-90 0 -89 0 -3 -92 -3 -92 -87 -2 -88 -1 0 93 0 94 -90 0 -90 0 0 -98 0 -99
-62 -2 c-35 -2 -79 -4 -98 -6 -42 -3 -206 -16 -237 -18 -12 -1 -23 0 -25 3 -1
3 11 26 26 52 27 47 64 143 73 188 2 14 8 42 12 62 5 20 8 87 8 150 0 98 -4
155 -22 268 -2 14 -6 45 -10 70 -4 25 -22 104 -40 175 -145 569 -413 887 -745
886 -41 0 -86 -3 -100 -6 -14 -3 -36 -8 -50 -11 -51 -10 -177 -87 -233 -142
-201 -196 -342 -547 -403 -1002 -13 -95 -12 -340 1 -415 33 -194 127 -352 261
-441 l55 -37 -158 -52 c-226 -75 -269 -98 -304 -167 -62 -122 39 -270 175
-255 28 3 69 14 91 25 147 71 556 176 875 223 36 5 76 11 90 14 14 2 45 6 70
10 25 3 56 8 70 10 14 2 54 7 90 10 36 3 81 8 100 10 58 8 221 22 340 30 391
27 1177 27 1478 0 26 -3 74 -7 107 -10 33 -3 85 -8 115 -10 134 -11 485 -57
605 -79 11 -2 49 -9 85 -16 303 -55 714 -156 842 -207 122 -49 260 52 245 178
-8 64 -30 104 -75 134 -90 59 -591 190 -997 260 -126 22 -134 23 -190 31 -27
3 -57 8 -66 9 -14 3 -40 6 -149 20 -14 2 -56 7 -95 11 -38 4 -77 8 -85 10 -8
1 -30 3 -47 3 l-33 1 0 329 0 329 58 6 c384 45 776 205 1057 431 87 69 234
219 297 302 147 192 275 473 302 663 4 25 10 72 15 105 9 63 7 322 -3 390 -34
218 -81 396 -166 615 -11 30 -26 69 -32 85 -14 37 -149 304 -184 365 -154 266
-384 549 -585 719 -101 86 -106 89 -200 151 -146 96 -372 194 -494 215 -16 2
-50 8 -75 13 -49 9 -282 16 -290 9z m315 -381 c152 -42 288 -111 434 -222 90
-67 261 -231 313 -299 12 -16 30 -38 40 -49 66 -73 217 -307 300 -466 129
-247 239 -578 265 -797 10 -77 10 -274 1 -346 -31 -238 -168 -496 -373 -700
-55 -54 -201 -166 -280 -213 -183 -110 -441 -198 -672 -228 l-43 -5 0 387 1
387 46 35 c40 30 146 113 243 191 14 11 203 160 421 332 252 198 403 324 414
344 47 85 -36 190 -133 169 -28 -7 -53 -26 -523 -398 -113 -90 -220 -174 -238
-188 -18 -14 -52 -40 -74 -59 -23 -18 -68 -54 -99 -78 l-58 -44 0 358 0 358
136 110 c75 61 144 117 154 125 10 8 29 24 43 35 220 175 307 253 318 283 31
91 -46 178 -139 157 -21 -4 -299 -222 -480 -376 -12 -10 -24 -19 -27 -19 -3 0
-5 136 -5 303 -1 369 -7 393 -105 438 -93 43 -190 7 -238 -87 -14 -28 -16
-102 -17 -610 0 -318 -2 -579 -3 -580 -1 -2 -18 11 -37 29 -19 18 -82 72 -140
122 -58 49 -116 100 -130 111 -254 219 -359 304 -382 309 -40 9 -80 -2 -111
-31 -32 -29 -42 -62 -33 -107 7 -38 18 -51 101 -122 32 -27 63 -55 69 -60 12
-11 193 -166 235 -200 13 -11 29 -25 35 -30 44 -39 180 -157 220 -190 27 -22
63 -53 80 -69 17 -16 46 -40 64 -54 l32 -24 0 -360 0 -360 -52 44 c-28 23 -64
52 -79 63 -34 24 -272 217 -279 225 -3 3 -14 13 -26 21 -11 8 -41 31 -65 51
-173 144 -474 378 -488 379 -9 0 -23 2 -32 4 -28 5 -78 -23 -99 -57 -24 -39
-26 -78 -6 -117 8 -15 149 -135 313 -267 164 -131 305 -244 313 -251 8 -6 35
-28 60 -48 25 -20 52 -42 60 -49 9 -7 83 -66 165 -132 83 -65 161 -129 175
-142 14 -12 28 -22 32 -22 5 0 8 -54 8 -120 l0 -120 -47 6 c-27 3 -90 14 -141
24 -594 123 -1041 565 -1120 1110 -9 60 -8 301 1 370 70 522 348 1096 704
1457 54 54 126 120 160 146 59 45 216 145 231 147 4 1 27 10 52 22 25 11 86
30 135 43 76 20 110 23 215 21 76 -2 148 -10 185 -20z m-2619 -2747 c124 -54
250 -225 339 -464 40 -107 99 -328 110 -410 3 -27 10 -77 15 -110 12 -85 5
-281 -13 -336 -41 -127 -106 -205 -217 -263 -65 -34 -182 -66 -239 -66 l-31 0
0 280 0 279 33 34 c293 303 297 307 297 349 0 42 -48 88 -92 88 -29 0 -46 -13
-135 -105 l-103 -105 0 196 0 196 -29 29 c-40 39 -82 39 -122 0 l-29 -29 0
-373 0 -372 -95 94 c-53 51 -102 97 -111 102 -46 26 -124 -27 -124 -84 0 -34
13 -49 189 -224 l141 -140 0 -107 c0 -125 7 -119 -112 -89 -169 43 -271 140
-314 298 -31 110 -25 341 12 532 8 42 17 91 20 108 3 18 14 63 25 100 11 38
22 77 24 89 14 61 96 244 143 319 37 58 147 164 190 182 73 32 155 33 228 2z"/>
<path d="M3060 4938 c-129 -66 -132 -243 -5 -315 128 -72 288 45 261 191 -15
78 -97 146 -176 146 -20 0 -56 -10 -80 -22z"/>
<path d="M4620 3078 c-132 -67 -132 -249 0 -315 54 -28 101 -29 156 -4 134 61
136 252 4 319 -24 12 -60 22 -80 22 -20 0 -56 -10 -80 -22z"/>
</g>
</svg>
