<svg width="32" height="32" viewBox="0 0 32 32" fill="none" xmlns="http://www.w3.org/2000/svg">
  <!-- Background circle -->
  <circle cx="16" cy="16" r="16" fill="#6aaf08"/>
  
  <!-- Tree/plant icon -->
  <path d="M16 4C18.5 4 20.5 6 20.5 8.5C20.5 10.2 19.5 11.7 18 12.3V14H20C21.1 14 22 14.9 22 16V18C22 19.1 21.1 20 20 20H18V22C18 23.1 17.1 24 16 24C14.9 24 14 23.1 14 22V20H12C10.9 20 10 19.1 10 18V16C10 14.9 10.9 14 12 14H14V12.3C12.5 11.7 11.5 10.2 11.5 8.5C11.5 6 13.5 4 16 4Z" fill="white"/>
  
  <!-- Leaf accents -->
  <ellipse cx="13" cy="10" rx="2" ry="1.5" fill="#90c53f" transform="rotate(-30 13 10)"/>
  <ellipse cx="19" cy="10" rx="2" ry="1.5" fill="#90c53f" transform="rotate(30 19 10)"/>
  
  <!-- Ground line -->
  <rect x="8" y="26" width="16" height="2" rx="1" fill="#5a8a06"/>
</svg>
